<svg width="32" height="32" viewBox="0 0 32 32" fill="none" xmlns="http://www.w3.org/2000/svg">
<path d="M20.113 13.3332C19.6686 10.2221 20.1129 3.99984 29.4463 2.6665C30.7796 7.99984 30.2463 14.3998 20.113 13.3332Z" fill="#61AC4C"/>
<ellipse cx="16" cy="11.3335" rx="8" ry="6" fill="#FB735E"/>
<ellipse cx="8.66665" cy="15.3335" rx="7.33333" ry="6" fill="#FB735E"/>
<ellipse cx="23.3333" cy="15.3335" rx="7.33333" ry="6" fill="#FB735E"/>
<ellipse cx="16" cy="17.9998" rx="4" ry="3.33333" fill="#F1D965"/>
<ellipse cx="10.6667" cy="23.3335" rx="6.66667" ry="6" fill="#FB735E"/>
<ellipse cx="21.3334" cy="23.3335" rx="6.66667" ry="6" fill="#FB735E"/>
<path fill-rule="evenodd" clip-rule="evenodd" d="M16.25 11.9768C16.8669 11.8597 17.3334 11.3178 17.3334 10.6668C17.3334 9.93045 16.7364 9.3335 16 9.3335C15.2636 9.3335 14.6667 9.93045 14.6667 10.6668C14.6667 11.3178 15.1331 11.8597 15.75 11.9768V12.0002V15.0291C15.75 15.1672 15.8619 15.2791 16 15.2791C16.1381 15.2791 16.25 15.1672 16.25 15.0291V12.0002V11.9768Z" fill="#F1D965"/>
<path fill-rule="evenodd" clip-rule="evenodd" d="M12.0262 13.4975C12.5019 13.0877 12.6348 12.3851 12.3094 11.8214C11.9412 11.1836 11.1257 10.9651 10.488 11.3333C9.85029 11.7015 9.63179 12.517 9.99998 13.1547C10.3254 13.7184 11.0004 13.9546 11.5931 13.7475L11.6048 13.7677L13.1193 16.3909C13.1884 16.5105 13.3413 16.5515 13.4608 16.4824C13.5804 16.4134 13.6214 16.2605 13.5523 16.1409L12.0379 13.5177L12.0262 13.4975Z" fill="#F1D965"/>
<path fill-rule="evenodd" clip-rule="evenodd" d="M19.9644 13.4975C19.4887 13.0877 19.3557 12.3851 19.6812 11.8214C20.0493 11.1836 20.8648 10.9651 21.5025 11.3333C22.1402 11.7015 22.3587 12.517 21.9906 13.1547C21.6651 13.7184 20.9901 13.9546 20.3974 13.7475L20.3857 13.7677L18.8712 16.3909C18.8022 16.5105 18.6493 16.5515 18.5297 16.4824C18.4101 16.4134 18.3692 16.2605 18.4382 16.1409L19.9527 13.5177L19.9644 13.4975Z" fill="#F1D965"/>
</svg>
