<svg width="24" height="24" viewBox="0 0 24 24" fill="none" xmlns="http://www.w3.org/2000/svg">
<path d="M15.0848 10C14.7514 7.66667 15.0847 3 22.0848 2C23.0847 6 22.6847 10.8 15.0848 10Z" fill="#61AC4C"/>
<ellipse cx="12" cy="8.5" rx="6" ry="4.5" fill="#FB735E"/>
<ellipse cx="6.5" cy="11.5" rx="5.5" ry="4.5" fill="#FB735E"/>
<ellipse cx="17.5" cy="11.5" rx="5.5" ry="4.5" fill="#FB735E"/>
<ellipse cx="12" cy="13.5" rx="3" ry="2.5" fill="#F1D965"/>
<ellipse cx="8" cy="17.5" rx="5" ry="4.5" fill="#FB735E"/>
<ellipse cx="16" cy="17.5" rx="5" ry="4.5" fill="#FB735E"/>
<path fill-rule="evenodd" clip-rule="evenodd" d="M12.25 8.9685C12.6813 8.85748 13 8.46596 13 8C13 7.44772 12.5523 7 12 7C11.4477 7 11 7.44772 11 8C11 8.46596 11.3187 8.85748 11.75 8.9685V9V11.2717C11.75 11.4098 11.8619 11.5217 12 11.5217C12.1381 11.5217 12.25 11.4098 12.25 11.2717V9V8.9685Z" fill="#F1D965"/>
<path fill-rule="evenodd" clip-rule="evenodd" d="M9.06678 10.0798C9.3848 9.76798 9.46503 9.26956 9.23205 8.86603C8.95591 8.38773 8.34432 8.22386 7.86603 8.5C7.38773 8.77614 7.22386 9.38773 7.5 9.86603C7.73298 10.2696 8.20474 10.4493 8.63377 10.3298L8.64952 10.3571L9.78539 12.3244C9.85442 12.444 10.0073 12.485 10.1269 12.4159C10.2465 12.3469 10.2874 12.194 10.2184 12.0744L9.08253 10.1071L9.06678 10.0798Z" fill="#F1D965"/>
<path fill-rule="evenodd" clip-rule="evenodd" d="M14.9261 10.0798C14.6081 9.76798 14.5279 9.26956 14.7609 8.86603C15.037 8.38773 15.6486 8.22386 16.1269 8.5C16.6052 8.77614 16.7691 9.38773 16.4929 9.86603C16.2599 10.2696 15.7882 10.4493 15.3592 10.3298L15.3434 10.3571L14.2075 12.3244C14.1385 12.444 13.9856 12.485 13.866 12.4159C13.7465 12.3469 13.7055 12.194 13.7745 12.0744L14.9104 10.1071L14.9261 10.0798Z" fill="#F1D965"/>
</svg>
