<svg width="106" height="24" viewBox="0 0 106 24" fill="none" xmlns="http://www.w3.org/2000/svg">
<path d="M6.28602 3.408C6.66002 3.408 7.01202 3.452 7.36402 3.496C7.91402 3.584 8.42002 3.848 8.83802 4.266C10.268 5.762 10.576 8.336 10.664 10.426C10.73 11.768 10.708 13.132 10.554 14.452C10.4 15.816 10.202 17.29 9.47602 18.412C8.86002 19.358 7.89202 19.974 6.90202 20.172C6.00002 20.348 5.01002 20.238 4.17402 19.754C3.38202 19.292 2.85402 18.566 2.45802 17.642C2.17202 16.96 1.99602 16.212 1.95202 15.464C1.84202 14.232 1.79802 13 1.79802 11.768C1.79802 10.932 1.79802 10.118 1.88602 9.304C1.93002 8.644 2.04002 7.962 2.15002 7.324C2.26002 6.796 2.32602 6.334 2.54602 5.85C2.76602 5.366 3.05202 4.904 3.42602 4.552C4.06402 3.914 4.90002 3.562 5.73602 3.452C5.91202 3.43 6.11002 3.43 6.28602 3.408ZM14.184 13.022C13.788 12.956 12.952 12.956 12.556 12.912C11.544 12.846 11.06 12.098 11.368 10.976C11.434 10.756 11.654 10.448 11.83 10.294C12.006 10.162 12.204 10.052 12.446 10.008C12.908 9.942 13.678 10.008 14.162 9.964H14.228V9.876C14.25 9.15 14.25 9.326 14.228 8.578C14.228 7.83 14.206 7.06 14.228 6.334V6.026C14.228 5.256 14.228 4.112 14.756 3.584C14.954 3.408 15.174 3.298 15.46 3.298H15.504C16.934 3.364 17.088 5.08 17.088 6.004V19.204C17.088 19.248 17.132 20.37 16.626 20.832C16.428 21.03 15.966 21.162 15.658 21.162C15.328 21.162 15.02 21.03 14.822 20.81C14.448 20.414 14.404 19.952 14.36 19.468C14.36 19.38 14.338 19.292 14.338 19.182C14.294 18.72 14.294 18.17 14.272 17.642C14.25 17.312 14.25 17.004 14.25 16.696V16.19C14.25 15.574 14.228 14.122 14.228 13.506C14.228 13.352 14.25 13.154 14.184 13.022ZM6.22002 17.246C6.48402 17.246 6.77002 17.158 7.03402 16.982C7.51802 16.63 7.69402 16.014 7.82602 15.31C8.06802 13.968 8.04602 12.34 8.00202 10.954C7.98002 9.832 7.95802 8.38 7.43002 7.478C7.14402 6.994 6.70402 6.686 6.24202 6.752C5.75802 6.796 5.31802 7.104 5.05402 7.676L4.85602 8.138C4.68002 8.688 4.59202 9.304 4.54802 9.898C4.50402 10.492 4.46002 11.108 4.46002 11.702C4.48202 12.296 4.41602 12.846 4.46002 13.418C4.57002 14.936 4.76802 17.224 6.22002 17.246ZM23.8822 3.408C24.2562 3.408 24.6082 3.452 24.9602 3.496C25.5102 3.584 26.0162 3.848 26.4342 4.266C27.8642 5.762 28.1722 8.336 28.2602 10.426C28.3262 11.768 28.3042 13.132 28.1502 14.452C27.9962 15.816 27.7982 17.29 27.0722 18.412C26.4562 19.358 25.4882 19.974 24.4982 20.172C23.5962 20.348 22.6062 20.238 21.7702 19.754C20.9782 19.292 20.4502 18.566 20.0542 17.642C19.7682 16.96 19.5922 16.212 19.5482 15.464C19.4382 14.232 19.3942 13 19.3942 11.768C19.3942 10.932 19.4382 10.118 19.5262 9.304C19.5702 8.644 19.6362 7.962 19.7462 7.324C19.8562 6.796 19.9222 6.334 20.1422 5.85C20.3622 5.366 20.6482 4.904 21.0222 4.552C21.6602 3.914 22.4962 3.562 23.3322 3.452C23.5082 3.43 23.7062 3.43 23.8822 3.408ZM34.5522 19.16C34.5082 19.512 34.4862 19.842 34.3762 20.194C34.3322 20.304 34.2882 20.392 34.2442 20.502C34.1562 20.678 34.0242 20.854 33.8482 20.986C33.5182 21.184 33.1002 21.228 32.7262 21.14C32.5062 21.096 32.3082 21.008 32.1542 20.876C31.6262 20.392 31.6482 19.248 31.6482 19.204V5.894C31.6262 5.212 31.6482 4.112 32.0662 3.716C32.3742 3.408 32.7482 3.364 33.1442 3.364C33.6502 3.364 34.1122 3.672 34.2882 4.156C34.5522 4.772 34.5302 5.454 34.5522 6.136V6.246C34.6182 8.49 34.5522 10.976 34.5522 13.088V18.368C34.5522 18.632 34.5742 18.896 34.5522 19.16ZM23.8162 17.246C24.0802 17.246 24.3662 17.158 24.6302 16.982C25.1142 16.63 25.2902 16.014 25.4222 15.31C25.6642 13.968 25.6422 12.34 25.5982 10.954C25.5762 9.832 25.5542 8.38 25.0262 7.478C24.7402 6.994 24.3002 6.686 23.8382 6.752C23.3542 6.796 22.9142 7.104 22.6502 7.676L22.4522 8.138C22.2762 8.688 22.1882 9.304 22.1442 9.898C22.1002 10.492 22.0562 11.108 22.0562 11.702C22.0782 12.296 22.0122 12.846 22.0562 13.418C22.1662 14.936 22.3642 17.224 23.8162 17.246ZM45.1095 10.118H49.3555C49.8615 10.008 50.3895 10.206 50.8295 10.602C51.0275 10.8 51.1375 11.13 51.1375 11.438C51.1375 11.79 51.0275 12.252 50.8515 12.45C50.3675 13 49.2235 12.934 49.1795 12.934L44.8675 12.956C44.1855 13 43.3715 13.044 42.8655 12.56C42.5355 12.252 42.3595 11.966 42.3595 11.548C42.3595 11.064 42.6675 10.492 43.1515 10.316C43.7675 10.052 44.4275 10.14 45.1095 10.118ZM73.1954 19.622C73.6354 19.644 74.0314 19.82 74.1854 20.282C74.3394 20.81 74.1414 21.184 73.6134 21.382C73.2614 21.536 72.8654 21.536 72.5574 21.536H62.5914C61.9974 21.536 61.3594 21.536 60.7214 21.514C60.1054 21.492 59.6654 21.03 59.5994 20.37C59.5554 19.886 59.5334 19.182 59.5334 18.786V18.588C59.5114 18.258 59.5114 17.752 59.7754 17.444C60.1494 17.026 60.9414 16.96 61.5794 16.96H62.0414C62.1514 16.96 62.2614 16.982 62.3494 16.982H71.4134V16.036H62.1294C61.9754 16.036 61.7994 16.014 61.6454 16.036H61.0954C60.8094 16.036 60.5674 16.036 60.3474 15.992C60.1054 15.926 59.8854 15.926 59.7314 15.684C59.5334 15.376 59.4894 15.09 59.5774 14.738C59.7314 14.276 60.3914 14.21 60.7214 14.144C60.9414 14.122 61.1614 14.1 61.4254 14.1H61.7994C61.9314 14.1 62.0634 14.122 62.1954 14.122H71.6334C73.1074 14.122 73.9434 14.54 73.9434 15.574V17.29C73.9434 17.686 73.7894 18.104 73.3274 18.39C72.9314 18.61 72.5354 18.588 72.1834 18.588H62.2394V19.622H73.1954ZM73.9214 9.832H73.4154V11.614C73.4154 12.384 72.9754 13.044 72.0734 13.044C71.8534 13.044 71.6334 13 71.4574 12.89C70.8634 12.538 70.7754 11.9 70.7754 11.68V5.102C70.7534 4.992 70.7974 4.31 70.9734 3.958C71.1054 3.672 71.4354 3.474 71.8534 3.43C72.3594 3.364 72.8214 3.496 73.0634 3.76C73.2394 3.98 73.2834 4.2 73.3494 4.442C73.4374 4.706 73.4374 5.322 73.4154 5.608V7.39C73.6574 7.412 74.8454 7.434 75.1094 7.5C75.6814 7.61 75.8794 7.852 75.9454 8.16C76.0334 8.468 76.0554 8.974 75.8794 9.26C75.5274 9.832 74.7794 9.81 73.9214 9.832ZM67.6954 9.106C67.6954 9.744 67.5414 10.36 67.2334 10.954C66.3094 12.802 64.1314 13.066 62.2834 12.868C60.8974 12.78 59.5994 11.988 58.9834 10.756C58.7414 10.272 58.6314 9.7 58.6314 9.106C58.6314 8.578 58.6974 8.094 58.8514 7.676C59.0274 7.236 59.2694 6.84 59.5334 6.51H59.1594C58.8074 6.51 58.5654 6.4 58.3014 6.202C58.0594 5.982 57.9714 5.718 57.9714 5.454C57.9714 5.146 58.0594 4.882 58.3014 4.64C58.5654 4.442 58.8074 4.354 59.1594 4.354H61.5134V3.694C61.7554 2.044 64.6594 1.956 64.4834 4.354H66.9914C67.3434 4.354 67.6074 4.442 67.8274 4.64C68.0694 4.882 68.1794 5.146 68.1794 5.454C68.1794 5.718 68.0694 5.982 67.8274 6.202C67.6074 6.4 67.3434 6.51 66.9914 6.51H66.7714C67.0354 6.84 67.2334 7.236 67.4314 7.676C67.6074 8.094 67.6954 8.578 67.6954 9.106ZM63.5154 10.558C64.0874 10.492 64.7474 10.272 64.9894 9.678C65.3854 8.82 64.9234 8.028 64.0874 7.588C63.8234 7.478 63.4934 7.412 63.1414 7.412C62.8114 7.412 62.4814 7.456 62.2174 7.566C61.9094 7.72 61.6894 7.94 61.5134 8.182C60.9634 8.93 61.2054 10.008 62.0414 10.382C62.5034 10.58 63.0314 10.602 63.5154 10.558ZM83.9811 12.934C83.5631 12.978 80.7251 12.912 80.2411 12.934H80.2191C79.1851 12.934 78.0631 12.956 77.6011 12.274C77.0951 11.504 77.2051 9.722 77.2051 9.656C77.2051 9.656 77.2051 8.93 77.2271 7.94C77.2491 6.884 77.2491 5.762 77.2491 5.762C77.2491 5.586 77.2491 4.728 77.4691 4.376C77.7331 3.958 77.9751 3.804 78.4151 3.716C78.7451 3.672 79.6691 3.628 79.6691 3.628H84.6411C85.2791 3.628 86.0711 3.694 86.6211 4.046C87.4791 4.596 87.2591 5.762 87.2591 6.598C87.2591 7.06 87.2371 7.522 87.2591 7.984V9.194C87.2371 9.348 87.2591 9.524 87.2591 9.7C87.2151 10.074 87.2591 10.448 87.2591 10.844C87.2591 11.46 87.1051 12.45 86.4011 12.714C85.6311 13.022 84.7731 12.934 83.9811 12.934ZM78.4591 17.752C78.4591 15.09 81.5391 14.364 85.5871 14.364C89.6351 14.364 92.7151 14.782 92.7151 17.752C92.7151 20.678 89.6351 21.14 85.5871 21.14C81.5391 21.14 78.4591 20.678 78.4591 17.752ZM92.5611 5.388C92.5611 5.344 92.5391 7.192 92.5611 7.61C92.8031 7.632 93.9911 7.654 94.2551 7.72C94.8271 7.83 95.0251 8.072 95.0911 8.38C95.1791 8.688 95.2011 9.194 95.0251 9.48C94.6731 10.052 93.9251 10.03 93.0671 10.052H92.5611V11.79C92.5391 12.098 92.4951 12.45 92.3191 12.78C92.2311 12.956 92.0991 13.11 91.9451 13.22C91.7251 13.374 91.4611 13.44 91.2191 13.44C90.9991 13.44 90.7791 13.396 90.6031 13.286C90.0091 12.934 89.9211 12.12 89.9211 12.098V5.102C89.8991 4.992 89.9431 4.31 90.1191 3.958C90.2511 3.672 90.5811 3.474 90.9991 3.43C91.5051 3.364 91.9671 3.496 92.2091 3.76C92.3851 3.98 92.4291 4.2 92.4951 4.442C92.5831 4.728 92.5831 5.08 92.5611 5.388ZM83.8711 6.422L81.1651 6.378C80.9011 6.378 80.6811 6.378 80.5051 6.422C80.2631 6.444 80.1531 6.51 79.9991 6.686C79.8891 6.84 79.8891 7.214 79.8891 7.28V8.204C79.8671 8.622 79.8671 9.04 79.8671 9.04C79.8671 9.062 79.8231 9.81 80.0871 10.14C80.3291 10.426 80.9231 10.426 81.4511 10.426H81.4731C82.2431 10.404 82.5951 10.426 83.3871 10.426C83.6291 10.426 83.8711 10.448 84.1131 10.404C84.3551 10.382 84.4211 10.25 84.4651 10.074C84.5531 9.722 84.5751 9.326 84.5751 8.842C84.5751 8.38 84.6191 7.896 84.5971 7.434C84.5751 7.214 84.6191 6.95 84.5531 6.73C84.4431 6.422 84.1351 6.422 83.8711 6.422ZM89.7451 17.752C89.7451 16.74 87.6331 16.652 85.5871 16.652C83.5411 16.652 81.5611 16.74 81.5611 17.752C81.5611 18.654 83.5411 18.83 85.5871 18.83C87.6331 18.83 89.7451 18.94 89.7451 17.752Z" fill="#2A2A35"/>
<path d="M99.5 6.25171C99.5 4.73198 100.732 3.5 102.252 3.5C103.952 3.5 105.246 5.02684 104.966 6.70409L103.802 13.6905C103.628 14.7347 102.724 15.5 101.666 15.5C100.47 15.5 99.5 14.5305 99.5 13.3345V6.25171Z" fill="#D35144"/>
<circle cx="101.5" cy="18.5" r="2" fill="#D35144"/>
</svg>
